<svg xmlns="http://www.w3.org/2000/svg" xmlns:xlink="http://www.w3.org/1999/xlink" width="500" zoomAndPan="magnify" viewBox="0 0 375 374.999991" height="500" preserveAspectRatio="xMidYMid meet" version="1.0"><defs><clipPath id="affdb94ca6"><path d="M 33.84375 69.378906 L 173 69.378906 L 173 305.628906 L 33.84375 305.628906 Z M 33.84375 69.378906 " clip-rule="nonzero"/></clipPath></defs><g clip-path="url(#affdb94ca6)"><path fill="#ffffff" d="M 168.433594 70.671875 C 166.046875 69.523438 163.191406 69.847656 161.109375 71.511719 L 93.761719 125.386719 L 40.792969 125.386719 C 36.96875 125.386719 33.867188 128.488281 33.867188 132.3125 L 33.867188 243.113281 C 33.867188 246.945312 36.96875 250.039062 40.792969 250.039062 L 93.761719 250.039062 L 161.113281 303.921875 C 162.359375 304.925781 163.898438 305.441406 165.4375 305.441406 C 166.453125 305.441406 167.480469 305.21875 168.433594 304.753906 C 170.835938 303.597656 172.359375 301.175781 172.359375 298.515625 L 172.359375 76.910156 C 172.359375 74.253906 170.835938 71.820312 168.433594 70.671875 Z M 168.433594 70.671875 " fill-opacity="1" fill-rule="nonzero"/></g><path fill="#ffffff" d="M 225.734375 142.652344 C 223.023438 139.945312 218.648438 139.945312 215.941406 142.652344 C 213.234375 145.359375 213.234375 149.742188 215.941406 152.445312 C 225.101562 161.605469 230.152344 173.78125 230.152344 186.722656 C 230.152344 199.667969 225.101562 211.832031 215.941406 221.003906 C 213.234375 223.710938 213.234375 228.085938 215.941406 230.792969 C 217.289062 232.144531 219.0625 232.824219 220.835938 232.824219 C 222.609375 232.824219 224.382812 232.144531 225.734375 230.792969 C 237.511719 219.015625 244 203.363281 244 186.722656 C 244 170.082031 237.519531 154.429688 225.734375 142.652344 Z M 225.734375 142.652344 " fill-opacity="1" fill-rule="nonzero"/><path fill="#ffffff" d="M 284.5 83.890625 C 281.792969 81.183594 277.414062 81.183594 274.707031 83.890625 C 272 86.601562 272 90.976562 274.707031 93.683594 C 326 144.984375 326 228.460938 274.707031 279.769531 C 272 282.476562 272 286.851562 274.707031 289.5625 C 276.058594 290.910156 277.828125 291.589844 279.601562 291.589844 C 281.375 291.589844 283.148438 290.910156 284.5 289.5625 C 341.1875 232.859375 341.1875 140.589844 284.5 83.890625 Z M 284.5 83.890625 " fill-opacity="1" fill-rule="nonzero"/><path fill="#ffffff" d="M 255.121094 113.269531 C 252.414062 110.5625 248.039062 110.5625 245.332031 113.269531 C 242.621094 115.976562 242.621094 120.351562 245.332031 123.0625 C 262.34375 140.082031 271.722656 162.6875 271.722656 186.714844 C 271.722656 210.746094 262.34375 233.355469 245.332031 250.371094 C 242.621094 253.078125 242.621094 257.457031 245.332031 260.164062 C 246.679688 261.515625 248.453125 262.191406 250.226562 262.191406 C 252 262.191406 253.773438 261.515625 255.121094 260.164062 C 274.753906 240.53125 285.566406 214.445312 285.566406 186.714844 C 285.566406 158.988281 274.753906 132.902344 255.121094 113.269531 Z M 255.121094 113.269531 " fill-opacity="1" fill-rule="nonzero"/></svg>