<svg xmlns="http://www.w3.org/2000/svg" xmlns:xlink="http://www.w3.org/1999/xlink" width="500" zoomAndPan="magnify" viewBox="0 0 375 374.999991" height="500" preserveAspectRatio="xMidYMid meet" version="1.0"><defs><clipPath id="f355e06aa5"><path d="M 30.898438 73.179688 L 344.398438 73.179688 L 344.398438 301.929688 L 30.898438 301.929688 Z M 30.898438 73.179688 " clip-rule="nonzero"/></clipPath></defs><g clip-path="url(#f355e06aa5)"><path fill="#ffffff" d="M 315.90625 122.539062 L 260.8125 122.539062 L 241.550781 86.929688 C 241.019531 85.945312 240.421875 85 239.761719 84.097656 C 239.105469 83.195312 238.386719 82.335938 237.613281 81.53125 C 236.839844 80.722656 236.015625 79.96875 235.140625 79.269531 C 234.265625 78.574219 233.347656 77.9375 232.386719 77.363281 C 231.429688 76.789062 230.433594 76.28125 229.40625 75.839844 C 228.378906 75.398438 227.324219 75.027344 226.246094 74.726562 C 225.167969 74.425781 224.078125 74.199219 222.96875 74.042969 C 221.859375 73.890625 220.746094 73.8125 219.628906 73.804688 L 155.671875 73.804688 C 154.535156 73.808594 153.402344 73.886719 152.277344 74.042969 C 151.148438 74.199219 150.039062 74.429688 148.941406 74.738281 C 147.847656 75.046875 146.777344 75.425781 145.734375 75.878906 C 144.6875 76.332031 143.679688 76.855469 142.707031 77.445312 C 141.734375 78.039062 140.808594 78.691406 139.921875 79.410156 C 139.039062 80.125 138.210938 80.898438 137.429688 81.730469 C 136.652344 82.558594 135.933594 83.4375 135.277344 84.367188 C 134.617188 85.296875 134.027344 86.265625 133.5 87.273438 L 115.144531 122.539062 L 102.929688 122.539062 C 102.910156 122.035156 102.84375 121.539062 102.726562 121.050781 C 102.613281 120.558594 102.453125 120.085938 102.246094 119.628906 C 102.039062 119.167969 101.789062 118.734375 101.5 118.320312 C 101.210938 117.910156 100.882812 117.53125 100.519531 117.183594 C 100.15625 116.832031 99.765625 116.523438 99.34375 116.25 C 98.917969 115.976562 98.476562 115.746094 98.007812 115.558594 C 97.542969 115.371094 97.0625 115.230469 96.566406 115.132812 C 96.074219 115.039062 95.574219 114.992188 95.070312 114.992188 L 90.84375 114.992188 C 90.667969 114.558594 90.4375 114.164062 90.144531 113.800781 C 89.851562 113.441406 89.515625 113.128906 89.128906 112.871094 C 88.742188 112.609375 88.328125 112.414062 87.882812 112.277344 C 87.441406 112.144531 86.984375 112.078125 86.519531 112.078125 L 75.027344 112.078125 C 74.5625 112.078125 74.109375 112.148438 73.664062 112.28125 C 73.21875 112.417969 72.804688 112.617188 72.421875 112.875 C 72.035156 113.132812 71.695312 113.445312 71.402344 113.804688 C 71.113281 114.164062 70.878906 114.5625 70.703125 114.992188 L 66.601562 114.992188 C 66.097656 114.992188 65.601562 115.039062 65.105469 115.132812 C 64.613281 115.230469 64.132812 115.371094 63.667969 115.558594 C 63.203125 115.746094 62.757812 115.976562 62.335938 116.25 C 61.914062 116.523438 61.523438 116.835938 61.160156 117.183594 C 60.800781 117.53125 60.476562 117.914062 60.1875 118.324219 C 59.898438 118.734375 59.652344 119.171875 59.445312 119.628906 C 59.242188 120.089844 59.082031 120.5625 58.96875 121.050781 C 58.855469 121.542969 58.789062 122.039062 58.769531 122.539062 C 57.855469 122.550781 56.941406 122.605469 56.027344 122.703125 C 55.117188 122.804688 54.214844 122.945312 53.316406 123.132812 C 52.417969 123.320312 51.53125 123.550781 50.660156 123.828125 C 49.785156 124.101562 48.925781 124.417969 48.082031 124.773438 C 47.234375 125.132812 46.410156 125.53125 45.605469 125.96875 C 44.800781 126.40625 44.019531 126.882812 43.261719 127.398438 C 42.503906 127.914062 41.769531 128.460938 41.066406 129.046875 C 40.359375 129.632812 39.6875 130.253906 39.042969 130.90625 C 38.398438 131.558594 37.785156 132.238281 37.207031 132.949219 C 36.628906 133.660156 36.085938 134.398438 35.582031 135.164062 C 35.074219 135.929688 34.609375 136.714844 34.179688 137.523438 C 33.75 138.335938 33.359375 139.164062 33.011719 140.011719 C 32.664062 140.859375 32.355469 141.722656 32.09375 142.601562 C 31.828125 143.476562 31.609375 144.367188 31.429688 145.265625 C 31.253906 146.164062 31.121094 147.070312 31.03125 147.984375 C 30.941406 148.894531 30.898438 149.808594 30.898438 150.726562 L 30.898438 273.125 C 30.898438 274.046875 30.941406 274.96875 31.03125 275.886719 C 31.121094 276.804688 31.257812 277.71875 31.4375 278.621094 C 31.617188 279.527344 31.84375 280.421875 32.109375 281.304688 C 32.378906 282.191406 32.6875 283.058594 33.042969 283.910156 C 33.394531 284.761719 33.789062 285.597656 34.226562 286.410156 C 34.660156 287.226562 35.132812 288.015625 35.648438 288.785156 C 36.160156 289.550781 36.710938 290.292969 37.296875 291.003906 C 37.878906 291.71875 38.5 292.402344 39.152344 293.054688 C 39.804688 293.707031 40.488281 294.328125 41.203125 294.914062 C 41.914062 295.5 42.65625 296.046875 43.425781 296.5625 C 44.191406 297.074219 44.984375 297.546875 45.796875 297.984375 C 46.609375 298.417969 47.445312 298.8125 48.296875 299.164062 C 49.148438 299.519531 50.019531 299.828125 50.902344 300.097656 C 51.785156 300.367188 52.679688 300.589844 53.585938 300.769531 C 54.492188 300.949219 55.402344 301.085938 56.320312 301.175781 C 57.238281 301.265625 58.160156 301.3125 59.085938 301.3125 L 315.90625 301.3125 C 316.828125 301.3125 317.75 301.265625 318.667969 301.175781 C 319.585938 301.085938 320.496094 300.949219 321.402344 300.769531 C 322.308594 300.589844 323.203125 300.367188 324.085938 300.097656 C 324.96875 299.828125 325.839844 299.519531 326.691406 299.164062 C 327.542969 298.8125 328.378906 298.417969 329.191406 297.984375 C 330.007812 297.546875 330.796875 297.074219 331.566406 296.5625 C 332.332031 296.046875 333.074219 295.5 333.785156 294.914062 C 334.5 294.328125 335.183594 293.707031 335.835938 293.054688 C 336.488281 292.402344 337.109375 291.71875 337.695312 291.003906 C 338.28125 290.292969 338.828125 289.550781 339.339844 288.785156 C 339.855469 288.015625 340.328125 287.226562 340.761719 286.410156 C 341.199219 285.597656 341.59375 284.761719 341.945312 283.910156 C 342.300781 283.058594 342.609375 282.191406 342.878906 281.304688 C 343.144531 280.421875 343.371094 279.527344 343.550781 278.621094 C 343.730469 277.71875 343.867188 276.804688 343.957031 275.886719 C 344.046875 274.96875 344.09375 274.046875 344.09375 273.125 L 344.09375 150.570312 C 344.085938 149.652344 344.035156 148.734375 343.941406 147.816406 C 343.847656 146.902344 343.707031 145.996094 343.523438 145.09375 C 343.339844 144.191406 343.113281 143.300781 342.839844 142.421875 C 342.570312 141.542969 342.257812 140.679688 341.902344 139.832031 C 341.546875 138.984375 341.148438 138.152344 340.714844 137.34375 C 340.277344 136.535156 339.800781 135.75 339.289062 134.984375 C 338.773438 134.222656 338.222656 133.484375 337.636719 132.777344 C 337.050781 132.066406 336.433594 131.386719 335.78125 130.738281 C 335.128906 130.089844 334.445312 129.476562 333.734375 128.894531 C 333.019531 128.3125 332.28125 127.765625 331.515625 127.257812 C 330.75 126.746094 329.960938 126.277344 329.148438 125.84375 C 328.335938 125.414062 327.503906 125.019531 326.65625 124.671875 C 325.804688 124.320312 324.941406 124.011719 324.058594 123.746094 C 323.179688 123.476562 322.285156 123.257812 321.382812 123.078125 C 320.480469 122.898438 319.574219 122.765625 318.65625 122.675781 C 317.742188 122.585938 316.824219 122.539062 315.90625 122.539062 Z M 187.496094 279.136719 C 186.242188 279.136719 184.988281 279.105469 183.738281 279.046875 C 182.484375 278.984375 181.234375 278.894531 179.988281 278.769531 C 178.742188 278.648438 177.496094 278.496094 176.257812 278.3125 C 175.015625 278.128906 173.78125 277.914062 172.554688 277.671875 C 171.324219 277.425781 170.101562 277.152344 168.886719 276.847656 C 167.667969 276.546875 166.460938 276.210938 165.261719 275.847656 C 164.0625 275.484375 162.871094 275.09375 161.691406 274.671875 C 160.511719 274.25 159.34375 273.796875 158.183594 273.320312 C 157.027344 272.839844 155.882812 272.332031 154.75 271.796875 C 153.613281 271.261719 152.496094 270.699219 151.390625 270.109375 C 150.285156 269.519531 149.195312 268.902344 148.117188 268.257812 C 147.042969 267.613281 145.984375 266.941406 144.941406 266.246094 C 143.898438 265.550781 142.875 264.828125 141.867188 264.082031 C 140.863281 263.335938 139.875 262.566406 138.902344 261.773438 C 137.933594 260.976562 136.984375 260.160156 136.058594 259.316406 C 135.128906 258.476562 134.21875 257.613281 133.332031 256.726562 C 132.449219 255.839844 131.582031 254.933594 130.742188 254.003906 C 129.898438 253.078125 129.082031 252.128906 128.285156 251.160156 C 127.488281 250.191406 126.71875 249.203125 125.972656 248.199219 C 125.222656 247.191406 124.503906 246.167969 123.804688 245.125 C 123.109375 244.082031 122.4375 243.023438 121.792969 241.949219 C 121.148438 240.875 120.53125 239.785156 119.941406 238.679688 C 119.347656 237.574219 118.785156 236.457031 118.25 235.324219 C 117.710938 234.191406 117.203125 233.042969 116.726562 231.886719 C 116.246094 230.730469 115.792969 229.558594 115.371094 228.378906 C 114.949219 227.199219 114.554688 226.011719 114.191406 224.8125 C 113.828125 223.613281 113.492188 222.40625 113.1875 221.1875 C 112.882812 219.972656 112.605469 218.75 112.363281 217.523438 C 112.117188 216.292969 111.902344 215.058594 111.71875 213.820312 C 111.535156 212.578125 111.378906 211.335938 111.257812 210.089844 C 111.132812 208.839844 111.042969 207.589844 110.980469 206.339844 C 110.917969 205.085938 110.886719 203.835938 110.886719 202.582031 C 110.886719 201.328125 110.917969 200.074219 110.976562 198.824219 C 111.039062 197.570312 111.132812 196.324219 111.253906 195.074219 C 111.375 193.828125 111.527344 192.585938 111.710938 191.34375 C 111.894531 190.105469 112.109375 188.871094 112.355469 187.640625 C 112.597656 186.410156 112.871094 185.1875 113.175781 183.972656 C 113.480469 182.757812 113.816406 181.550781 114.179688 180.351562 C 114.542969 179.152344 114.933594 177.960938 115.355469 176.78125 C 115.777344 175.601562 116.230469 174.429688 116.707031 173.273438 C 117.1875 172.113281 117.695312 170.96875 118.230469 169.835938 C 118.765625 168.703125 119.328125 167.582031 119.921875 166.476562 C 120.511719 165.371094 121.128906 164.28125 121.773438 163.207031 C 122.417969 162.132812 123.085938 161.074219 123.78125 160.03125 C 124.480469 158.988281 125.199219 157.964844 125.945312 156.957031 C 126.691406 155.949219 127.464844 154.960938 128.257812 153.992188 C 129.054688 153.023438 129.871094 152.074219 130.714844 151.148438 C 131.554688 150.21875 132.417969 149.3125 133.304688 148.425781 C 134.191406 147.539062 135.097656 146.671875 136.027344 145.832031 C 136.953125 144.988281 137.902344 144.171875 138.871094 143.375 C 139.839844 142.582031 140.828125 141.808594 141.835938 141.0625 C 142.839844 140.316406 143.867188 139.59375 144.90625 138.898438 C 145.949219 138.203125 147.007812 137.53125 148.082031 136.886719 C 149.15625 136.242188 150.246094 135.625 151.351562 135.03125 C 152.457031 134.441406 153.578125 133.878906 154.710938 133.34375 C 155.84375 132.804688 156.988281 132.296875 158.144531 131.820312 C 159.304688 131.339844 160.472656 130.886719 161.652344 130.464844 C 162.832031 130.042969 164.023438 129.648438 165.222656 129.285156 C 166.421875 128.921875 167.628906 128.585938 168.84375 128.28125 C 170.058594 127.976562 171.28125 127.703125 172.511719 127.457031 C 173.742188 127.214844 174.976562 127 176.214844 126.816406 C 177.457031 126.632812 178.699219 126.476562 179.945312 126.355469 C 181.195312 126.230469 182.441406 126.140625 183.695312 126.078125 C 184.945312 126.015625 186.199219 125.984375 187.453125 125.984375 C 188.707031 125.984375 189.957031 126.015625 191.210938 126.078125 C 192.460938 126.136719 193.710938 126.230469 194.960938 126.351562 C 196.207031 126.476562 197.449219 126.628906 198.691406 126.8125 C 199.929688 126.996094 201.164062 127.210938 202.394531 127.453125 C 203.621094 127.699219 204.84375 127.972656 206.0625 128.277344 C 207.277344 128.582031 208.484375 128.914062 209.683594 129.28125 C 210.882812 129.644531 212.074219 130.035156 213.253906 130.457031 C 214.433594 130.878906 215.601562 131.332031 216.761719 131.808594 C 217.917969 132.289062 219.0625 132.796875 220.195312 133.332031 C 221.328125 133.867188 222.449219 134.433594 223.554688 135.023438 C 224.660156 135.613281 225.75 136.230469 226.824219 136.875 C 227.898438 137.519531 228.957031 138.191406 230 138.886719 C 231.042969 139.582031 232.066406 140.304688 233.074219 141.050781 C 234.082031 141.796875 235.070312 142.566406 236.039062 143.363281 C 237.007812 144.15625 237.957031 144.976562 238.882812 145.816406 C 239.8125 146.660156 240.71875 147.523438 241.605469 148.410156 C 242.492188 149.296875 243.355469 150.203125 244.199219 151.132812 C 245.039062 152.058594 245.859375 153.007812 246.65625 153.976562 C 247.449219 154.945312 248.21875 155.933594 248.96875 156.941406 C 249.714844 157.949219 250.433594 158.972656 251.132812 160.015625 C 251.828125 161.054688 252.5 162.113281 253.144531 163.191406 C 253.789062 164.265625 254.40625 165.355469 254.996094 166.460938 C 255.585938 167.566406 256.148438 168.683594 256.6875 169.816406 C 257.222656 170.949219 257.730469 172.097656 258.210938 173.253906 C 258.6875 174.410156 259.140625 175.582031 259.5625 176.761719 C 259.984375 177.941406 260.378906 179.128906 260.742188 180.328125 C 261.105469 181.527344 261.4375 182.738281 261.742188 183.953125 C 262.046875 185.167969 262.324219 186.390625 262.566406 187.621094 C 262.8125 188.847656 263.027344 190.082031 263.210938 191.324219 C 263.394531 192.5625 263.546875 193.808594 263.671875 195.054688 C 263.792969 196.300781 263.886719 197.550781 263.945312 198.804688 C 264.007812 200.054688 264.039062 201.308594 264.039062 202.5625 C 264.039062 203.8125 264.007812 205.066406 263.945312 206.316406 C 263.886719 207.570312 263.792969 208.816406 263.671875 210.066406 C 263.546875 211.3125 263.394531 212.554688 263.210938 213.792969 C 263.027344 215.035156 262.8125 216.265625 262.570312 217.496094 C 262.324219 218.726562 262.050781 219.945312 261.746094 221.164062 C 261.441406 222.378906 261.105469 223.585938 260.742188 224.785156 C 260.378906 225.984375 259.988281 227.171875 259.566406 228.351562 C 259.144531 229.53125 258.691406 230.699219 258.214844 231.859375 C 257.734375 233.015625 257.226562 234.160156 256.691406 235.292969 C 256.15625 236.425781 255.59375 237.542969 255 238.648438 C 254.410156 239.753906 253.792969 240.84375 253.148438 241.917969 C 252.507812 242.996094 251.835938 244.050781 251.140625 245.09375 C 250.445312 246.136719 249.722656 247.160156 248.976562 248.167969 C 248.230469 249.171875 247.460938 250.160156 246.664062 251.128906 C 245.871094 252.097656 245.054688 253.046875 244.210938 253.976562 C 243.371094 254.902344 242.507812 255.8125 241.621094 256.695312 C 240.734375 257.582031 239.828125 258.445312 238.902344 259.289062 C 237.972656 260.128906 237.023438 260.949219 236.054688 261.742188 C 235.085938 262.539062 234.101562 263.308594 233.09375 264.054688 C 232.089844 264.804688 231.0625 265.523438 230.023438 266.21875 C 228.980469 266.917969 227.921875 267.585938 226.847656 268.230469 C 225.773438 268.875 224.683594 269.492188 223.578125 270.085938 C 222.476562 270.675781 221.355469 271.238281 220.222656 271.773438 C 219.089844 272.3125 217.945312 272.820312 216.789062 273.300781 C 215.632812 273.777344 214.464844 274.230469 213.285156 274.652344 C 212.105469 275.074219 210.914062 275.46875 209.714844 275.832031 C 208.515625 276.195312 207.308594 276.53125 206.09375 276.835938 C 204.878906 277.140625 203.65625 277.414062 202.429688 277.660156 C 201.199219 277.90625 199.964844 278.121094 198.726562 278.304688 C 197.488281 278.488281 196.246094 278.640625 194.996094 278.765625 C 193.75 278.886719 192.503906 278.980469 191.25 279.042969 C 190 279.105469 188.746094 279.136719 187.496094 279.136719 Z M 315.089844 166.605469 C 314.25 166.609375 313.417969 166.527344 312.59375 166.367188 C 311.769531 166.203125 310.96875 165.964844 310.191406 165.644531 C 309.417969 165.324219 308.679688 164.929688 307.980469 164.464844 C 307.28125 164 306.632812 163.472656 306.039062 162.878906 C 305.441406 162.285156 304.910156 161.640625 304.445312 160.941406 C 303.976562 160.246094 303.582031 159.507812 303.257812 158.730469 C 302.9375 157.957031 302.691406 157.15625 302.527344 156.332031 C 302.363281 155.507812 302.28125 154.679688 302.28125 153.839844 C 302.28125 152.996094 302.359375 152.167969 302.523438 151.34375 C 302.6875 150.519531 302.929688 149.71875 303.25 148.941406 C 303.570312 148.167969 303.964844 147.429688 304.433594 146.730469 C 304.898438 146.03125 305.429688 145.386719 306.023438 144.792969 C 306.617188 144.199219 307.261719 143.667969 307.960938 143.203125 C 308.660156 142.734375 309.398438 142.339844 310.171875 142.019531 C 310.949219 141.699219 311.75 141.457031 312.574219 141.292969 C 313.398438 141.128906 314.230469 141.046875 315.070312 141.050781 C 315.910156 141.050781 316.742188 141.132812 317.566406 141.296875 C 318.386719 141.460938 319.1875 141.707031 319.964844 142.027344 C 320.738281 142.351562 321.476562 142.746094 322.171875 143.210938 C 322.871094 143.679688 323.515625 144.210938 324.109375 144.804688 C 324.703125 145.402344 325.230469 146.046875 325.695312 146.746094 C 326.160156 147.445312 326.554688 148.183594 326.875 148.960938 C 327.195312 149.738281 327.433594 150.539062 327.597656 151.363281 C 327.757812 152.1875 327.839844 153.019531 327.835938 153.859375 C 327.835938 154.695312 327.753906 155.523438 327.59375 156.34375 C 327.429688 157.167969 327.1875 157.964844 326.867188 158.738281 C 326.546875 159.511719 326.152344 160.246094 325.6875 160.941406 C 325.222656 161.636719 324.695312 162.28125 324.105469 162.871094 C 323.511719 163.464844 322.867188 163.992188 322.171875 164.457031 C 321.476562 164.921875 320.742188 165.316406 319.96875 165.636719 C 319.195312 165.957031 318.398438 166.199219 317.578125 166.359375 C 316.757812 166.523438 315.925781 166.605469 315.089844 166.605469 Z M 315.089844 166.605469 " fill-opacity="1" fill-rule="nonzero"/></g><path fill="#ffffff" d="M 240.863281 202.5625 C 240.863281 204.308594 240.777344 206.050781 240.605469 207.792969 C 240.433594 209.53125 240.179688 211.257812 239.835938 212.972656 C 239.496094 214.6875 239.070312 216.378906 238.566406 218.054688 C 238.058594 219.726562 237.46875 221.367188 236.800781 222.984375 C 236.132812 224.597656 235.386719 226.175781 234.5625 227.71875 C 233.738281 229.261719 232.839844 230.757812 231.867188 232.210938 C 230.898438 233.664062 229.859375 235.066406 228.75 236.417969 C 227.640625 237.769531 226.46875 239.0625 225.230469 240.296875 C 223.996094 241.535156 222.703125 242.707031 221.351562 243.816406 C 220 244.925781 218.597656 245.964844 217.144531 246.933594 C 215.691406 247.90625 214.195312 248.804688 212.652344 249.628906 C 211.109375 250.453125 209.53125 251.199219 207.917969 251.867188 C 206.300781 252.535156 204.660156 253.125 202.984375 253.632812 C 201.3125 254.136719 199.621094 254.5625 197.90625 254.902344 C 196.191406 255.246094 194.464844 255.5 192.726562 255.671875 C 190.984375 255.84375 189.242188 255.929688 187.496094 255.929688 C 185.746094 255.929688 184.003906 255.84375 182.261719 255.671875 C 180.523438 255.5 178.796875 255.246094 177.082031 254.902344 C 175.367188 254.5625 173.675781 254.136719 172.003906 253.632812 C 170.328125 253.125 168.6875 252.535156 167.070312 251.867188 C 165.457031 251.199219 163.878906 250.453125 162.335938 249.628906 C 160.796875 248.804688 159.296875 247.90625 157.84375 246.933594 C 156.390625 245.964844 154.988281 244.925781 153.636719 243.816406 C 152.285156 242.707031 150.992188 241.535156 149.757812 240.296875 C 148.519531 239.0625 147.347656 237.769531 146.238281 236.417969 C 145.132812 235.066406 144.089844 233.664062 143.121094 232.210938 C 142.148438 230.757812 141.25 229.261719 140.425781 227.71875 C 139.605469 226.175781 138.855469 224.597656 138.1875 222.984375 C 137.519531 221.367188 136.929688 219.726562 136.421875 218.054688 C 135.917969 216.378906 135.492188 214.6875 135.152344 212.972656 C 134.808594 211.257812 134.554688 209.53125 134.382812 207.792969 C 134.210938 206.050781 134.125 204.308594 134.125 202.5625 C 134.125 200.8125 134.210938 199.070312 134.382812 197.328125 C 134.554688 195.589844 134.808594 193.863281 135.152344 192.148438 C 135.492188 190.433594 135.917969 188.742188 136.425781 187.070312 C 136.929688 185.394531 137.519531 183.753906 138.1875 182.136719 C 138.855469 180.523438 139.605469 178.945312 140.425781 177.402344 C 141.25 175.863281 142.148438 174.363281 143.121094 172.910156 C 144.089844 171.457031 145.132812 170.054688 146.238281 168.703125 C 147.347656 167.351562 148.519531 166.058594 149.757812 164.824219 C 150.992188 163.585938 152.285156 162.414062 153.636719 161.304688 C 154.988281 160.199219 156.390625 159.15625 157.84375 158.1875 C 159.296875 157.214844 160.796875 156.316406 162.335938 155.492188 C 163.878906 154.671875 165.457031 153.921875 167.070312 153.253906 C 168.6875 152.585938 170.328125 151.996094 172.003906 151.492188 C 173.675781 150.984375 175.367188 150.558594 177.082031 150.21875 C 178.796875 149.875 180.523438 149.621094 182.261719 149.449219 C 184.003906 149.277344 185.746094 149.191406 187.496094 149.191406 C 189.242188 149.191406 190.984375 149.277344 192.726562 149.449219 C 194.464844 149.621094 196.191406 149.875 197.90625 150.21875 C 199.621094 150.558594 201.3125 150.984375 202.988281 151.492188 C 204.660156 151.996094 206.300781 152.585938 207.917969 153.253906 C 209.53125 153.921875 211.109375 154.671875 212.652344 155.492188 C 214.195312 156.316406 215.691406 157.214844 217.144531 158.1875 C 218.597656 159.15625 220 160.199219 221.351562 161.304688 C 222.703125 162.414062 223.996094 163.585938 225.230469 164.824219 C 226.46875 166.058594 227.640625 167.351562 228.75 168.703125 C 229.859375 170.054688 230.898438 171.457031 231.867188 172.910156 C 232.839844 174.363281 233.738281 175.863281 234.5625 177.402344 C 235.386719 178.945312 236.132812 180.523438 236.800781 182.136719 C 237.46875 183.753906 238.058594 185.394531 238.566406 187.070312 C 239.070312 188.742188 239.496094 190.433594 239.835938 192.148438 C 240.179688 193.863281 240.433594 195.589844 240.605469 197.328125 C 240.777344 199.070312 240.863281 200.8125 240.863281 202.5625 Z M 240.863281 202.5625 " fill-opacity="1" fill-rule="nonzero"/></svg>