<svg xmlns="http://www.w3.org/2000/svg" xmlns:xlink="http://www.w3.org/1999/xlink" width="500" zoomAndPan="magnify" viewBox="0 0 375 374.999991" height="500" preserveAspectRatio="xMidYMid meet" version="1.0"><defs><g/></defs><g fill="#ffffff" fill-opacity="1"><g transform="translate(12.140629, 218.999978)"><g><path d="M 69.6875 -86.328125 C 72.632812 -86.328125 74.65625 -85.992188 75.75 -85.328125 C 76.851562 -84.660156 77.40625 -83.492188 77.40625 -81.828125 L 77.40625 -57.265625 C 77.40625 -55.648438 76.675781 -54.492188 75.21875 -53.796875 C 73.769531 -53.109375 71.351562 -52.765625 67.96875 -52.765625 C 65.738281 -52.765625 64.015625 -52.921875 62.796875 -53.234375 C 61.585938 -53.546875 60.742188 -54.007812 60.265625 -54.625 C 59.785156 -55.238281 59.546875 -56.117188 59.546875 -57.265625 C 59.546875 -61.359375 58.304688 -64.523438 55.828125 -66.765625 C 53.359375 -69.003906 49.601562 -70.125 44.5625 -70.125 C 37.9375 -70.125 32.910156 -67.742188 29.484375 -62.984375 C 26.054688 -58.222656 24.34375 -51.363281 24.34375 -42.40625 C 24.34375 -33.550781 26.160156 -26.707031 29.796875 -21.875 C 33.441406 -17.050781 38.597656 -14.640625 45.265625 -14.640625 C 50.554688 -14.640625 55.554688 -15.351562 60.265625 -16.78125 L 60.265625 -28.703125 L 46.484375 -28.703125 C 45.335938 -28.703125 44.453125 -28.890625 43.828125 -29.265625 C 43.210938 -29.648438 42.75 -30.363281 42.4375 -31.40625 C 42.132812 -32.457031 41.984375 -33.984375 41.984375 -35.984375 C 41.984375 -37.984375 42.132812 -39.503906 42.4375 -40.546875 C 42.75 -41.597656 43.210938 -42.328125 43.828125 -42.734375 C 44.453125 -43.140625 45.335938 -43.34375 46.484375 -43.34375 L 80.328125 -43.34375 C 81.472656 -43.34375 82.351562 -43.140625 82.96875 -42.734375 C 83.59375 -42.328125 84.054688 -41.597656 84.359375 -40.546875 C 84.671875 -39.503906 84.828125 -37.984375 84.828125 -35.984375 C 84.828125 -33.984375 84.671875 -32.457031 84.359375 -31.40625 C 84.054688 -30.363281 83.59375 -29.648438 82.96875 -29.265625 C 82.351562 -28.890625 81.472656 -28.703125 80.328125 -28.703125 L 78.109375 -28.703125 L 78.109375 -10.203125 C 78.109375 -9.066406 77.882812 -8.066406 77.4375 -7.203125 C 76.988281 -6.347656 76.359375 -5.707031 75.546875 -5.28125 C 71.117188 -3 66.257812 -1.285156 60.96875 -0.140625 C 55.6875 1.003906 50.21875 1.578125 44.5625 1.578125 C 36.75 1.578125 29.867188 -0.207031 23.921875 -3.78125 C 17.972656 -7.351562 13.367188 -12.457031 10.109375 -19.09375 C 6.847656 -25.738281 5.21875 -33.507812 5.21875 -42.40625 C 5.21875 -51.257812 6.8125 -59.003906 10 -65.640625 C 13.1875 -72.285156 17.597656 -77.394531 23.234375 -80.96875 C 28.878906 -84.539062 35.269531 -86.328125 42.40625 -86.328125 C 50.789062 -86.328125 56.984375 -83.519531 60.984375 -77.90625 L 60.984375 -81.828125 C 60.984375 -83.441406 61.671875 -84.59375 63.046875 -85.28125 C 64.429688 -85.976562 66.644531 -86.328125 69.6875 -86.328125 Z M 69.6875 -86.328125 "/></g></g></g><g fill="#ffffff" fill-opacity="1"><g transform="translate(99.819441, 218.999978)"><g><path d="M 47.84375 -84.75 C 58.789062 -84.75 67.082031 -82.285156 72.71875 -77.359375 C 78.363281 -72.429688 81.1875 -65.328125 81.1875 -56.046875 C 81.1875 -46.765625 78.363281 -39.648438 72.71875 -34.703125 C 67.082031 -29.753906 58.789062 -27.28125 47.84375 -27.28125 L 37.125 -27.28125 L 37.125 -14.640625 L 52.625 -14.640625 C 53.769531 -14.640625 54.648438 -14.4375 55.265625 -14.03125 C 55.878906 -13.625 56.34375 -12.894531 56.65625 -11.84375 C 56.96875 -10.800781 57.125 -9.28125 57.125 -7.28125 C 57.125 -5.28125 56.96875 -3.753906 56.65625 -2.703125 C 56.34375 -1.660156 55.878906 -0.945312 55.265625 -0.5625 C 54.648438 -0.1875 53.769531 0 52.625 0 L 8.78125 0 C 7.632812 0 6.753906 -0.1875 6.140625 -0.5625 C 5.523438 -0.945312 5.0625 -1.660156 4.75 -2.703125 C 4.4375 -3.753906 4.28125 -5.28125 4.28125 -7.28125 C 4.28125 -9.28125 4.4375 -10.800781 4.75 -11.84375 C 5.0625 -12.894531 5.523438 -13.625 6.140625 -14.03125 C 6.753906 -14.4375 7.632812 -14.640625 8.78125 -14.640625 L 19.28125 -14.640625 L 19.28125 -70.125 L 8.78125 -70.125 C 7.632812 -70.125 6.753906 -70.3125 6.140625 -70.6875 C 5.523438 -71.070312 5.0625 -71.785156 4.75 -72.828125 C 4.4375 -73.878906 4.28125 -75.40625 4.28125 -77.40625 C 4.28125 -79.40625 4.4375 -80.925781 4.75 -81.96875 C 5.0625 -83.019531 5.523438 -83.742188 6.140625 -84.140625 C 6.753906 -84.546875 7.632812 -84.75 8.78125 -84.75 Z M 37.125 -42.625 L 45.625 -42.625 C 51.289062 -42.625 55.5625 -43.71875 58.4375 -45.90625 C 61.320312 -48.101562 62.765625 -51.484375 62.765625 -56.046875 C 62.765625 -60.617188 61.320312 -63.988281 58.4375 -66.15625 C 55.5625 -68.320312 51.289062 -69.40625 45.625 -69.40625 L 37.125 -69.40625 Z M 37.125 -42.625 "/></g></g></g><g fill="#ffffff" fill-opacity="1"><g transform="translate(187.498252, 218.999978)"><g><path d="M 69.625 -84.75 C 70.757812 -84.75 71.632812 -84.546875 72.25 -84.140625 C 72.875 -83.742188 73.335938 -83.019531 73.640625 -81.96875 C 73.953125 -80.925781 74.109375 -79.40625 74.109375 -77.40625 C 74.109375 -75.40625 73.953125 -73.878906 73.640625 -72.828125 C 73.335938 -71.785156 72.875 -71.070312 72.25 -70.6875 C 71.632812 -70.3125 70.757812 -70.125 69.625 -70.125 L 52.765625 -70.125 L 52.765625 -14.640625 L 71.046875 -14.640625 C 72.191406 -14.640625 73.070312 -14.4375 73.6875 -14.03125 C 74.300781 -13.625 74.765625 -12.894531 75.078125 -11.84375 C 75.390625 -10.800781 75.546875 -9.28125 75.546875 -7.28125 C 75.546875 -5.28125 75.390625 -3.753906 75.078125 -2.703125 C 74.765625 -1.660156 74.300781 -0.945312 73.6875 -0.5625 C 73.070312 -0.1875 72.191406 0 71.046875 0 L 16.640625 0 C 15.492188 0 14.609375 -0.1875 13.984375 -0.5625 C 13.367188 -0.945312 12.90625 -1.660156 12.59375 -2.703125 C 12.289062 -3.753906 12.140625 -5.28125 12.140625 -7.28125 C 12.140625 -9.28125 12.289062 -10.800781 12.59375 -11.84375 C 12.90625 -12.894531 13.367188 -13.625 13.984375 -14.03125 C 14.609375 -14.4375 15.492188 -14.640625 16.640625 -14.640625 L 34.921875 -14.640625 L 34.921875 -70.125 L 18.0625 -70.125 C 16.914062 -70.125 16.035156 -70.3125 15.421875 -70.6875 C 14.804688 -71.070312 14.34375 -71.785156 14.03125 -72.828125 C 13.71875 -73.878906 13.5625 -75.40625 13.5625 -77.40625 C 13.5625 -79.40625 13.71875 -80.925781 14.03125 -81.96875 C 14.34375 -83.019531 14.804688 -83.742188 15.421875 -84.140625 C 16.035156 -84.546875 16.914062 -84.75 18.0625 -84.75 Z M 69.625 -84.75 "/></g></g></g><g fill="#ffffff" fill-opacity="1"><g transform="translate(275.177064, 218.999978)"><g><path d="M 43.84375 -86.328125 C 51.644531 -86.328125 58.519531 -84.550781 64.46875 -81 C 70.425781 -77.457031 75.035156 -72.363281 78.296875 -65.71875 C 81.554688 -59.082031 83.1875 -51.3125 83.1875 -42.40625 C 83.1875 -33.507812 81.554688 -25.738281 78.296875 -19.09375 C 75.035156 -12.457031 70.425781 -7.351562 64.46875 -3.78125 C 58.519531 -0.207031 51.644531 1.578125 43.84375 1.578125 C 36.03125 1.578125 29.148438 -0.207031 23.203125 -3.78125 C 17.253906 -7.351562 12.648438 -12.457031 9.390625 -19.09375 C 6.128906 -25.738281 4.5 -33.507812 4.5 -42.40625 C 4.5 -51.3125 6.128906 -59.082031 9.390625 -65.71875 C 12.648438 -72.363281 17.253906 -77.457031 23.203125 -81 C 29.148438 -84.550781 36.03125 -86.328125 43.84375 -86.328125 Z M 43.84375 -70.125 C 37.226562 -70.125 32.207031 -67.742188 28.78125 -62.984375 C 25.351562 -58.222656 23.640625 -51.363281 23.640625 -42.40625 C 23.640625 -33.457031 25.351562 -26.59375 28.78125 -21.8125 C 32.207031 -17.03125 37.226562 -14.640625 43.84375 -14.640625 C 50.457031 -14.640625 55.476562 -17.03125 58.90625 -21.8125 C 62.332031 -26.59375 64.046875 -33.457031 64.046875 -42.40625 C 64.046875 -51.363281 62.332031 -58.222656 58.90625 -62.984375 C 55.476562 -67.742188 50.457031 -70.125 43.84375 -70.125 Z M 43.84375 -70.125 "/></g></g></g></svg>