<svg xmlns="http://www.w3.org/2000/svg" xmlns:xlink="http://www.w3.org/1999/xlink" width="500" zoomAndPan="magnify" viewBox="0 0 375 374.999991" height="500" preserveAspectRatio="xMidYMid meet" version="1.0"><defs><g/></defs><g fill="#ffffff" fill-opacity="1"><g transform="translate(55.980469, 218.999986)"><g><path d="M 69.625 -84.75 C 70.757812 -84.75 71.632812 -84.546875 72.25 -84.140625 C 72.875 -83.742188 73.335938 -83.019531 73.640625 -81.96875 C 73.953125 -80.925781 74.109375 -79.40625 74.109375 -77.40625 C 74.109375 -75.40625 73.953125 -73.878906 73.640625 -72.828125 C 73.335938 -71.785156 72.875 -71.070312 72.25 -70.6875 C 71.632812 -70.3125 70.757812 -70.125 69.625 -70.125 L 52.765625 -70.125 L 52.765625 -14.640625 L 71.046875 -14.640625 C 72.191406 -14.640625 73.070312 -14.4375 73.6875 -14.03125 C 74.300781 -13.625 74.765625 -12.894531 75.078125 -11.84375 C 75.390625 -10.800781 75.546875 -9.28125 75.546875 -7.28125 C 75.546875 -5.28125 75.390625 -3.753906 75.078125 -2.703125 C 74.765625 -1.660156 74.300781 -0.945312 73.6875 -0.5625 C 73.070312 -0.1875 72.191406 0 71.046875 0 L 16.640625 0 C 15.492188 0 14.609375 -0.1875 13.984375 -0.5625 C 13.367188 -0.945312 12.90625 -1.660156 12.59375 -2.703125 C 12.289062 -3.753906 12.140625 -5.28125 12.140625 -7.28125 C 12.140625 -9.28125 12.289062 -10.800781 12.59375 -11.84375 C 12.90625 -12.894531 13.367188 -13.625 13.984375 -14.03125 C 14.609375 -14.4375 15.492188 -14.640625 16.640625 -14.640625 L 34.921875 -14.640625 L 34.921875 -70.125 L 18.0625 -70.125 C 16.914062 -70.125 16.035156 -70.3125 15.421875 -70.6875 C 14.804688 -71.070312 14.34375 -71.785156 14.03125 -72.828125 C 13.71875 -73.878906 13.5625 -75.40625 13.5625 -77.40625 C 13.5625 -79.40625 13.71875 -80.925781 14.03125 -81.96875 C 14.34375 -83.019531 14.804688 -83.742188 15.421875 -84.140625 C 16.035156 -84.546875 16.914062 -84.75 18.0625 -84.75 Z M 69.625 -84.75 "/></g></g></g><g fill="#ffffff" fill-opacity="1"><g transform="translate(143.659281, 218.999986)"><g><path d="M 42.84375 -86.328125 C 49.082031 -86.328125 54.398438 -85.242188 58.796875 -83.078125 C 63.203125 -80.910156 66.535156 -77.875 68.796875 -73.96875 C 71.054688 -70.070312 72.1875 -65.503906 72.1875 -60.265625 C 72.1875 -55.453125 71.101562 -51.023438 68.9375 -46.984375 C 66.769531 -42.941406 63.332031 -38.65625 58.625 -34.125 L 39.125 -15.359375 L 59.265625 -15.359375 L 59.265625 -21.921875 C 59.265625 -23.585938 59.8125 -24.753906 60.90625 -25.421875 C 62 -26.085938 64.019531 -26.421875 66.96875 -26.421875 C 70.019531 -26.421875 72.234375 -26.070312 73.609375 -25.375 C 74.992188 -24.6875 75.6875 -23.535156 75.6875 -21.921875 L 75.6875 -4.640625 C 75.6875 -3.023438 75.328125 -1.847656 74.609375 -1.109375 C 73.898438 -0.367188 72.710938 0 71.046875 0 L 15.78125 0 C 14.632812 0 13.75 -0.203125 13.125 -0.609375 C 12.507812 -1.015625 12.046875 -1.738281 11.734375 -2.78125 C 11.429688 -3.832031 11.28125 -5.359375 11.28125 -7.359375 C 11.28125 -9.253906 11.398438 -10.675781 11.640625 -11.625 C 11.878906 -12.582031 12.332031 -13.375 13 -14 L 43.625 -43.484375 C 47.570312 -47.296875 50.296875 -50.363281 51.796875 -52.6875 C 53.296875 -55.019531 54.046875 -57.425781 54.046875 -59.90625 C 54.046875 -63.1875 53.09375 -65.828125 51.1875 -67.828125 C 49.289062 -69.828125 46.53125 -70.828125 42.90625 -70.828125 C 38.769531 -70.828125 34.65625 -69.828125 30.5625 -67.828125 L 30.5625 -57.84375 C 30.5625 -56.175781 30.015625 -55.007812 28.921875 -54.34375 C 27.828125 -53.675781 25.800781 -53.34375 22.84375 -53.34375 C 19.800781 -53.34375 17.585938 -53.6875 16.203125 -54.375 C 14.828125 -55.0625 14.140625 -56.21875 14.140625 -57.84375 L 14.140625 -74.765625 C 14.140625 -76.710938 15.160156 -78.234375 17.203125 -79.328125 C 21.441406 -81.660156 25.75 -83.410156 30.125 -84.578125 C 34.507812 -85.742188 38.75 -86.328125 42.84375 -86.328125 Z M 42.84375 -86.328125 "/></g></g></g><g fill="#ffffff" fill-opacity="1"><g transform="translate(231.338092, 218.999986)"><g><path d="M 71.828125 -86.328125 C 74.785156 -86.328125 76.8125 -85.992188 77.90625 -85.328125 C 79 -84.660156 79.546875 -83.492188 79.546875 -81.828125 L 79.546875 -54.40625 C 79.546875 -52.789062 78.816406 -51.632812 77.359375 -50.9375 C 75.910156 -50.25 73.5 -49.90625 70.125 -49.90625 C 67.882812 -49.90625 66.15625 -50.0625 64.9375 -50.375 C 63.726562 -50.6875 62.882812 -51.148438 62.40625 -51.765625 C 61.925781 -52.390625 61.6875 -53.269531 61.6875 -54.40625 C 61.6875 -59.164062 60.390625 -62.972656 57.796875 -65.828125 C 55.203125 -68.691406 51.503906 -70.125 46.703125 -70.125 C 40.078125 -70.125 35.050781 -67.742188 31.625 -62.984375 C 28.195312 -58.222656 26.484375 -51.363281 26.484375 -42.40625 C 26.484375 -33.550781 28.304688 -26.707031 31.953125 -21.875 C 35.597656 -17.050781 40.75 -14.640625 47.40625 -14.640625 C 51.550781 -14.640625 55.523438 -15.195312 59.328125 -16.3125 C 63.140625 -17.4375 67.285156 -19.140625 71.765625 -21.421875 C 72.523438 -21.804688 73.238281 -22 73.90625 -22 C 76.144531 -22 78 -20.019531 79.46875 -16.0625 C 80.132812 -14.257812 80.46875 -12.640625 80.46875 -11.203125 C 80.46875 -8.773438 79.375 -7.039062 77.1875 -6 C 67 -0.945312 56.835938 1.578125 46.703125 1.578125 C 38.890625 1.578125 32.007812 -0.207031 26.0625 -3.78125 C 20.113281 -7.351562 15.507812 -12.457031 12.25 -19.09375 C 8.988281 -25.738281 7.359375 -33.507812 7.359375 -42.40625 C 7.359375 -51.257812 8.953125 -59.003906 12.140625 -65.640625 C 15.328125 -72.285156 19.738281 -77.394531 25.375 -80.96875 C 31.019531 -84.539062 37.414062 -86.328125 44.5625 -86.328125 C 52.882812 -86.328125 59.070312 -83.328125 63.125 -77.328125 L 63.125 -81.828125 C 63.125 -83.441406 63.8125 -84.59375 65.1875 -85.28125 C 66.570312 -85.976562 68.785156 -86.328125 71.828125 -86.328125 Z M 71.828125 -86.328125 "/></g></g></g></svg>