<svg xmlns="http://www.w3.org/2000/svg" xmlns:xlink="http://www.w3.org/1999/xlink" width="500" zoomAndPan="magnify" viewBox="0 0 375 374.999991" height="500" preserveAspectRatio="xMidYMid meet" version="1.0"><defs><clipPath id="ead33e4aa1"><path d="M 44.195312 44.195312 L 330.597656 44.195312 L 330.597656 330.695312 L 44.195312 330.695312 Z M 44.195312 44.195312 " clip-rule="nonzero"/></clipPath></defs><g clip-path="url(#ead33e4aa1)"><path fill="#ffffff" d="M 186.507812 132.996094 C 216.300781 132.4375 240.882812 156.152344 241.441406 185.945312 C 241.441406 186.480469 241.441406 186.992188 241.441406 187.523438 C 241.773438 217.320312 217.90625 241.746094 188.109375 242.078125 C 158.3125 242.40625 133.886719 218.542969 133.558594 188.746094 C 133.558594 188.339844 133.558594 187.933594 133.558594 187.523438 C 133.226562 157.882812 156.863281 133.53125 186.507812 132.996094 Z M 192.28125 44.324219 C 184.242188 44.042969 176.175781 44.449219 168.210938 45.519531 C 165.386719 45.902344 163.074219 47.886719 162.234375 50.582031 L 154.292969 76.433594 C 153.605469 78.621094 151.929688 80.378906 149.765625 81.140625 C 146.023438 82.488281 142.359375 83.992188 138.773438 85.695312 C 136.6875 86.714844 134.242188 86.664062 132.207031 85.570312 L 108.339844 72.898438 C 105.824219 71.574219 102.769531 71.828125 100.53125 73.558594 C 90.300781 81.320312 81.191406 90.453125 73.40625 100.65625 C 71.675781 102.921875 71.421875 105.949219 72.746094 108.46875 L 85.441406 132.359375 C 86.535156 134.371094 86.636719 136.8125 85.695312 138.898438 C 83.964844 142.488281 82.4375 146.152344 81.117188 149.890625 C 80.351562 152.082031 78.597656 153.761719 76.382812 154.421875 L 50.558594 162.386719 C 47.835938 163.199219 45.851562 165.539062 45.492188 168.339844 C 43.765625 181.085938 43.765625 193.960938 45.492188 206.710938 C 45.851562 209.507812 47.835938 211.847656 50.558594 212.664062 L 76.382812 220.628906 C 78.597656 221.289062 80.351562 222.96875 81.117188 225.15625 C 82.4375 228.898438 83.964844 232.5625 85.695312 236.148438 C 86.636719 238.234375 86.535156 240.679688 85.441406 242.6875 L 72.746094 266.582031 C 71.421875 269.074219 71.675781 272.128906 73.40625 274.390625 C 81.191406 284.59375 90.300781 293.703125 100.53125 301.488281 C 102.769531 303.21875 105.824219 303.449219 108.339844 302.152344 L 132.207031 289.480469 C 134.242188 288.386719 136.6875 288.335938 138.773438 289.328125 C 142.359375 291.03125 146.023438 292.558594 149.765625 293.882812 C 151.929688 294.644531 153.605469 296.402344 154.292969 298.589844 L 162.234375 324.441406 C 163.074219 327.164062 165.386719 329.148438 168.210938 329.503906 C 180.933594 331.234375 193.835938 331.234375 206.558594 329.503906 C 209.355469 329.148438 211.695312 327.164062 212.535156 324.441406 L 220.476562 298.589844 C 221.160156 296.402344 222.839844 294.644531 225.003906 293.882812 C 228.746094 292.558594 232.433594 291.03125 235.996094 289.328125 C 238.082031 288.335938 240.5 288.386719 242.535156 289.480469 L 266.425781 302.152344 C 268.945312 303.449219 272 303.21875 274.238281 301.488281 C 284.46875 293.703125 293.578125 284.59375 301.363281 274.390625 C 303.09375 272.128906 303.347656 269.074219 302.023438 266.582031 L 289.351562 242.6875 C 288.234375 240.679688 288.15625 238.234375 289.097656 236.148438 C 290.804688 232.5625 292.328125 228.898438 293.652344 225.15625 C 294.417969 222.96875 296.171875 221.289062 298.386719 220.628906 L 324.238281 212.664062 C 326.933594 211.824219 328.917969 209.507812 329.300781 206.710938 C 331.003906 193.960938 331.003906 181.085938 329.300781 168.339844 C 328.917969 165.539062 326.933594 163.199219 324.238281 162.386719 L 298.386719 154.421875 C 296.171875 153.761719 294.417969 152.082031 293.652344 149.890625 C 292.328125 146.152344 290.804688 142.488281 289.097656 138.898438 C 288.15625 136.8125 288.234375 134.371094 289.351562 132.359375 L 302.023438 108.46875 C 303.347656 105.949219 303.09375 102.921875 301.363281 100.65625 C 293.578125 90.453125 284.46875 81.320312 274.238281 73.558594 C 272 71.828125 268.945312 71.574219 266.425781 72.898438 L 242.535156 85.570312 C 240.5 86.664062 238.082031 86.714844 235.996094 85.722656 C 232.433594 84.015625 228.746094 82.488281 225.003906 81.167969 C 222.839844 80.402344 221.160156 78.648438 220.476562 76.433594 L 212.535156 50.609375 C 211.695312 47.886719 209.355469 45.902344 206.558594 45.519531 C 201.824219 44.882812 197.066406 44.476562 192.28125 44.324219 " fill-opacity="1" fill-rule="nonzero"/></g></svg>