<svg xmlns="http://www.w3.org/2000/svg" xmlns:xlink="http://www.w3.org/1999/xlink" width="500" zoomAndPan="magnify" viewBox="0 0 375 374.999991" height="500" preserveAspectRatio="xMidYMid meet" version="1.0"><defs><g/></defs><g fill="#ffffff" fill-opacity="1"><g transform="translate(55.980469, 218.999986)"><g><path d="M 65.40625 -86.328125 C 68.445312 -86.328125 70.609375 -85.976562 71.890625 -85.28125 C 73.179688 -84.59375 73.828125 -83.441406 73.828125 -81.828125 L 73.828125 -62.265625 C 73.828125 -60.648438 73.316406 -59.492188 72.296875 -58.796875 C 71.273438 -58.109375 69.597656 -57.765625 67.265625 -57.765625 C 65.691406 -57.765625 64.453125 -57.953125 63.546875 -58.328125 C 62.640625 -58.710938 61.925781 -59.285156 61.40625 -60.046875 C 59.164062 -63.566406 56.285156 -66.289062 52.765625 -68.21875 C 49.242188 -70.15625 45.175781 -71.125 40.5625 -71.125 C 37.082031 -71.125 34.351562 -70.238281 32.375 -68.46875 C 30.40625 -66.707031 29.421875 -64.425781 29.421875 -61.625 C 29.421875 -60.238281 29.847656 -59.101562 30.703125 -58.21875 C 31.554688 -57.34375 32.796875 -56.570312 34.421875 -55.90625 C 36.515625 -55.09375 40.109375 -54.257812 45.203125 -53.40625 C 50.148438 -52.457031 54.191406 -51.566406 57.328125 -50.734375 C 60.472656 -49.898438 63.425781 -48.625 66.1875 -46.90625 C 73.800781 -42.289062 77.609375 -34.84375 77.609375 -24.5625 C 77.609375 -19.320312 76.5 -14.75 74.28125 -10.84375 C 72.070312 -6.945312 68.753906 -3.898438 64.328125 -1.703125 C 59.898438 0.484375 54.453125 1.578125 47.984375 1.578125 C 40.035156 1.578125 33.300781 -0.828125 27.78125 -5.640625 L 27.78125 -2.921875 C 27.78125 -1.304688 27.195312 -0.15625 26.03125 0.53125 C 24.863281 1.226562 22.78125 1.578125 19.78125 1.578125 C 16.726562 1.578125 14.5625 1.226562 13.28125 0.53125 C 12 -0.15625 11.359375 -1.304688 11.359375 -2.921875 L 11.359375 -26.78125 C 11.359375 -28.394531 11.867188 -29.546875 12.890625 -30.234375 C 13.910156 -30.929688 15.585938 -31.28125 17.921875 -31.28125 C 19.585938 -31.28125 20.90625 -31.0625 21.875 -30.625 C 22.851562 -30.195312 23.609375 -29.460938 24.140625 -28.421875 C 26.703125 -23.515625 29.769531 -19.820312 33.34375 -17.34375 C 36.914062 -14.875 41.082031 -13.640625 45.84375 -13.640625 C 50.03125 -13.640625 53.21875 -14.492188 55.40625 -16.203125 C 57.59375 -17.921875 58.6875 -20.300781 58.6875 -23.34375 C 58.6875 -25.25 58.195312 -26.851562 57.21875 -28.15625 C 56.25 -29.46875 54.835938 -30.578125 52.984375 -31.484375 C 51.460938 -32.242188 49.785156 -32.863281 47.953125 -33.34375 C 46.117188 -33.820312 43.414062 -34.441406 39.84375 -35.203125 C 35.75 -36.054688 32.367188 -36.835938 29.703125 -37.546875 C 27.035156 -38.265625 24.535156 -39.242188 22.203125 -40.484375 C 18.585938 -42.390625 15.753906 -44.925781 13.703125 -48.09375 C 11.660156 -51.257812 10.640625 -55.363281 10.640625 -60.40625 C 10.640625 -65.445312 11.804688 -69.929688 14.140625 -73.859375 C 16.472656 -77.785156 19.742188 -80.84375 23.953125 -83.03125 C 28.171875 -85.226562 32.992188 -86.328125 38.421875 -86.328125 C 42.222656 -86.328125 45.742188 -85.707031 48.984375 -84.46875 C 52.222656 -83.226562 55.03125 -81.46875 57.40625 -79.1875 L 57.40625 -81.828125 C 57.40625 -83.441406 57.988281 -84.59375 59.15625 -85.28125 C 60.320312 -85.976562 62.40625 -86.328125 65.40625 -86.328125 Z M 65.40625 -86.328125 "/></g></g></g><g fill="#ffffff" fill-opacity="1"><g transform="translate(143.659281, 218.999986)"><g><path d="M 47.84375 -84.75 C 58.789062 -84.75 67.082031 -82.285156 72.71875 -77.359375 C 78.363281 -72.429688 81.1875 -65.328125 81.1875 -56.046875 C 81.1875 -46.765625 78.363281 -39.648438 72.71875 -34.703125 C 67.082031 -29.753906 58.789062 -27.28125 47.84375 -27.28125 L 37.125 -27.28125 L 37.125 -14.640625 L 52.625 -14.640625 C 53.769531 -14.640625 54.648438 -14.4375 55.265625 -14.03125 C 55.878906 -13.625 56.34375 -12.894531 56.65625 -11.84375 C 56.96875 -10.800781 57.125 -9.28125 57.125 -7.28125 C 57.125 -5.28125 56.96875 -3.753906 56.65625 -2.703125 C 56.34375 -1.660156 55.878906 -0.945312 55.265625 -0.5625 C 54.648438 -0.1875 53.769531 0 52.625 0 L 8.78125 0 C 7.632812 0 6.753906 -0.1875 6.140625 -0.5625 C 5.523438 -0.945312 5.0625 -1.660156 4.75 -2.703125 C 4.4375 -3.753906 4.28125 -5.28125 4.28125 -7.28125 C 4.28125 -9.28125 4.4375 -10.800781 4.75 -11.84375 C 5.0625 -12.894531 5.523438 -13.625 6.140625 -14.03125 C 6.753906 -14.4375 7.632812 -14.640625 8.78125 -14.640625 L 19.28125 -14.640625 L 19.28125 -70.125 L 8.78125 -70.125 C 7.632812 -70.125 6.753906 -70.3125 6.140625 -70.6875 C 5.523438 -71.070312 5.0625 -71.785156 4.75 -72.828125 C 4.4375 -73.878906 4.28125 -75.40625 4.28125 -77.40625 C 4.28125 -79.40625 4.4375 -80.925781 4.75 -81.96875 C 5.0625 -83.019531 5.523438 -83.742188 6.140625 -84.140625 C 6.753906 -84.546875 7.632812 -84.75 8.78125 -84.75 Z M 37.125 -42.625 L 45.625 -42.625 C 51.289062 -42.625 55.5625 -43.71875 58.4375 -45.90625 C 61.320312 -48.101562 62.765625 -51.484375 62.765625 -56.046875 C 62.765625 -60.617188 61.320312 -63.988281 58.4375 -66.15625 C 55.5625 -68.320312 51.289062 -69.40625 45.625 -69.40625 L 37.125 -69.40625 Z M 37.125 -42.625 "/></g></g></g><g fill="#ffffff" fill-opacity="1"><g transform="translate(231.338092, 218.999986)"><g><path d="M 69.625 -84.75 C 70.757812 -84.75 71.632812 -84.546875 72.25 -84.140625 C 72.875 -83.742188 73.335938 -83.019531 73.640625 -81.96875 C 73.953125 -80.925781 74.109375 -79.40625 74.109375 -77.40625 C 74.109375 -75.40625 73.953125 -73.878906 73.640625 -72.828125 C 73.335938 -71.785156 72.875 -71.070312 72.25 -70.6875 C 71.632812 -70.3125 70.757812 -70.125 69.625 -70.125 L 52.765625 -70.125 L 52.765625 -14.640625 L 71.046875 -14.640625 C 72.191406 -14.640625 73.070312 -14.4375 73.6875 -14.03125 C 74.300781 -13.625 74.765625 -12.894531 75.078125 -11.84375 C 75.390625 -10.800781 75.546875 -9.28125 75.546875 -7.28125 C 75.546875 -5.28125 75.390625 -3.753906 75.078125 -2.703125 C 74.765625 -1.660156 74.300781 -0.945312 73.6875 -0.5625 C 73.070312 -0.1875 72.191406 0 71.046875 0 L 16.640625 0 C 15.492188 0 14.609375 -0.1875 13.984375 -0.5625 C 13.367188 -0.945312 12.90625 -1.660156 12.59375 -2.703125 C 12.289062 -3.753906 12.140625 -5.28125 12.140625 -7.28125 C 12.140625 -9.28125 12.289062 -10.800781 12.59375 -11.84375 C 12.90625 -12.894531 13.367188 -13.625 13.984375 -14.03125 C 14.609375 -14.4375 15.492188 -14.640625 16.640625 -14.640625 L 34.921875 -14.640625 L 34.921875 -70.125 L 18.0625 -70.125 C 16.914062 -70.125 16.035156 -70.3125 15.421875 -70.6875 C 14.804688 -71.070312 14.34375 -71.785156 14.03125 -72.828125 C 13.71875 -73.878906 13.5625 -75.40625 13.5625 -77.40625 C 13.5625 -79.40625 13.71875 -80.925781 14.03125 -81.96875 C 14.34375 -83.019531 14.804688 -83.742188 15.421875 -84.140625 C 16.035156 -84.546875 16.914062 -84.75 18.0625 -84.75 Z M 69.625 -84.75 "/></g></g></g></svg>